<svg width="64" height="62" viewBox="0 0 64 62" fill="none" xmlns="http://www.w3.org/2000/svg">
<path d="M28.2207 16.3223L20.1195 2.82109C19.7864 2.2657 19.3151 1.80604 18.7516 1.4869C18.1881 1.16775 17.5515 1.00001 16.9039 1H3.87844C2.36085 1 1.47257 2.70742 2.3421 3.95078L15.3816 22.5789C18.8644 19.3246 23.2941 17.091 28.2207 16.3223ZM60.1216 1H47.0961C45.7789 1 44.5578 1.69141 43.8805 2.82109L35.7793 16.3223C40.7059 17.091 45.1356 19.3246 48.6184 22.5777L61.6579 3.95078C62.5274 2.70742 61.6391 1 60.1216 1ZM32 19.75C20.6093 19.75 11.3749 28.9844 11.3749 40.375C11.3749 51.7656 20.6093 61 32 61C43.3907 61 52.6251 51.7656 52.6251 40.375C52.6251 28.9844 43.3907 19.75 32 19.75ZM42.8422 38.1789L38.3973 42.5102L39.4485 48.6297C39.636 49.7266 38.4805 50.5645 37.4973 50.0465L32 47.1578L26.5039 50.0465C25.5195 50.568 24.3652 49.7254 24.5527 48.6297L25.6039 42.5102L21.159 38.1789C20.3597 37.4008 20.8015 36.0426 21.9031 35.8832L28.0473 34.9879L30.793 29.4191C31.0402 28.9176 31.5184 28.6703 31.9977 28.6703C32.4793 28.6703 32.9609 28.9211 33.2082 29.4191L35.9539 34.9879L42.0981 35.8832C43.1996 36.0426 43.6414 37.4008 42.8422 38.1789Z" fill="#FEE101" stroke="#3F3F3F" stroke-width="2"/>
</svg>
