<svg width="173" height="97" viewBox="0 0 173 97" fill="none" xmlns="http://www.w3.org/2000/svg">
<path d="M2 57V38.5L25 41.5C23.4 48.3 24.3333 53.3333 25 55C17.3333 55.8333 2 57.4 2 57Z" fill="#FEE101" fill-opacity="0.45" stroke="black" stroke-width="2.5"/>
<path d="M8.03069 18.2656L16.8442 2L35.6372 15.5951C30.9908 20.8115 29.4135 25.6816 29.2057 27.4646C22.0679 24.5448 7.84012 18.6173 8.03069 18.2656Z" fill="#FEE101" fill-opacity="0.45" stroke="black" stroke-width="2.5"/>
<path d="M16.8132 93.2228L8 76.957L29.6515 68.6377C31.4842 75.3787 34.7027 79.3596 36.0828 80.5074C29.739 84.8924 17.0038 93.5745 16.8132 93.2228Z" fill="#FEE101" fill-opacity="0.45" stroke="black" stroke-width="2.5"/>
<path d="M170.666 38.9116L171.111 57.4062L148.046 54.9611C149.481 48.1245 148.427 43.1152 147.721 41.465C155.365 40.4473 170.656 38.5117 170.666 38.9116Z" fill="#FEE101" fill-opacity="0.45" stroke="black" stroke-width="2.5"/>
<path d="M165.57 77.7797L157.151 94.2529L138.036 81.1145C142.555 75.7876 144.015 70.8809 144.18 69.0935C151.386 71.8405 165.752 77.4235 165.57 77.7797Z" fill="#FEE101" fill-opacity="0.45" stroke="black" stroke-width="2.5"/>
<path d="M154.985 3.05568L164.187 19.1045L142.742 27.9429C140.748 21.248 137.434 17.3458 136.027 16.2316C142.263 11.695 154.786 2.70868 154.985 3.05568Z" fill="#FEE101" fill-opacity="0.45" stroke="black" stroke-width="2.5"/>
</svg>
