<svg width="257" height="88" viewBox="0 0 257 88" fill="none" xmlns="http://www.w3.org/2000/svg">
<path fill-rule="evenodd" clip-rule="evenodd" d="M256.094 46.875V42.9688H252.188C250.527 42.9688 248.949 43.3203 247.518 43.9453C249.262 42.9316 250.746 41.5176 251.781 39.7246C253.348 37.0137 253.764 33.8555 252.953 30.832L251.941 27.0566L248.168 28.0703C246.555 28.502 245.102 29.2754 243.842 30.2949C245.301 28.8516 246.393 27.0742 246.938 25.041C247.746 22.0176 247.33 18.8594 245.766 16.1484L243.812 12.7656L240.43 14.7188C239.117 15.4766 237.996 16.4688 237.086 17.625C237.982 15.9492 238.459 14.0664 238.459 12.1113C238.459 8.98047 237.24 6.03906 235.025 3.82422L232.264 1.0625L229.502 3.82422C228.254 5.07227 227.379 6.54297 226.812 8.10156C224.15 3.27734 219.016 0 213.125 0H209.219V1.95312C209.219 8.06641 212.756 13.3574 217.885 15.9219C217.1 16.4023 216.359 16.9668 215.691 17.6348L212.93 20.3984L215.691 23.1602C217.105 24.5723 218.816 25.5762 220.684 26.1191L220.135 26.4355L222.088 29.8184C223.096 31.5625 224.531 32.9414 226.213 33.9512L225.533 34.1328L226.545 37.9062C227.072 39.875 228.074 41.5898 229.395 42.9668H228.75V46.873C228.75 48.9102 229.275 50.8281 230.193 52.498L229.574 52.332L228.562 56.1055C228.045 58.0371 228.033 60.0215 228.496 61.9102L227.945 61.5918L225.992 64.9727C222.869 70.3867 224.578 77.2715 229.754 80.6387C227.549 83.291 225.023 85.7188 222.213 87.8867L228.252 87.8926C230.021 86.248 231.654 84.4922 233.152 82.6426L233.666 82.9375C235.506 84 237.52 84.5059 239.506 84.5059C243.559 84.5059 247.506 82.4043 249.674 78.6484L251.627 75.2676L248.244 73.3145C246.887 72.5293 245.434 72.0547 243.967 71.8574C245.898 71.8086 247.797 71.2949 249.516 70.3008C252.227 68.7363 254.166 66.209 254.975 63.1856L255.986 59.4121L252.213 58.4004C250.75 58.0078 249.254 57.9082 247.793 58.082C252.592 56.6152 256.094 52.1484 256.094 46.875ZM242.09 71.7637C241.598 71.6953 241.109 71.6016 240.623 71.4707L240.074 71.3242C240.002 71.4862 239.927 71.6457 239.851 71.8054C239.832 71.8454 239.813 71.8854 239.794 71.9255C239.785 71.9464 239.775 71.9673 239.765 71.9882C239.753 72.0142 239.741 72.0403 239.729 72.0664C240.502 71.8867 241.293 71.7852 242.09 71.7637ZM239.516 41.4434C238.861 39.8711 237.744 38.5469 236.242 37.6797C234.434 36.6348 232.33 36.3594 230.314 36.8965C231.414 40.998 235.594 43.4434 239.701 42.4512C239.686 42.3654 239.671 42.2796 239.655 42.1937C239.611 41.943 239.567 41.6921 239.516 41.4434ZM240.293 54.6699C240.303 54.5521 240.314 54.4342 240.325 54.3163C240.343 54.1254 240.361 53.9342 240.373 53.7422C239.9 49.8828 236.641 46.875 232.656 46.875C232.656 51.123 236.066 54.5742 240.293 54.6699ZM238.002 65.8496C238.273 64.0938 237.982 62.3164 237.082 60.7578C236.037 58.9512 234.352 57.6582 232.34 57.1172C231.799 59.1348 232.076 61.2383 233.119 63.0449C234.141 64.8145 235.783 66.082 237.742 66.6406C237.798 66.4821 237.849 66.3221 237.9 66.1619L237.901 66.1609C237.934 66.0571 237.967 65.9532 238.002 65.8496ZM244.074 45.3438C244.095 45.5299 244.111 45.7161 244.126 45.9023C244.134 45.9954 244.142 46.0885 244.15 46.1816C244.803 45.5645 245.523 45.0254 246.303 44.5703C245.77 44.8027 245.236 45.0332 244.666 45.1855L244.074 45.3438ZM248.4 37.7715C249.443 35.9648 249.719 33.8594 249.18 31.8438C247.164 32.3848 245.479 33.6758 244.436 35.4824C243.393 37.291 243.117 39.3965 243.656 41.4121C245.674 40.8711 247.357 39.5781 248.4 37.7715ZM240.932 32.4707C241.035 32.7363 241.137 33.0039 241.236 33.2734C241.756 32.4277 242.385 31.6855 243.078 31.0098C242.576 31.4258 242.053 31.8223 241.477 32.1562L240.932 32.4707ZM242.383 18.1016C240.574 19.1445 239.283 20.8301 238.742 22.8457C238.203 24.8613 238.48 26.9668 239.523 28.7734C241.332 27.7305 242.623 26.0449 243.164 24.0293C243.705 22.0137 243.426 19.9082 242.383 18.1016ZM235.086 21.5234C235.348 20.6484 235.721 19.8301 236.164 19.0547C235.816 19.5234 235.445 19.9766 235.023 20.3984L234.582 20.8398C234.641 20.9205 234.701 21.0007 234.761 21.0808C234.871 21.2276 234.981 21.3743 235.086 21.5234ZM234.553 12.1133C234.553 10.0254 233.74 8.06445 232.264 6.58789C229.219 9.63281 229.219 14.5898 232.264 17.6367C233.74 16.1602 234.553 14.1992 234.553 12.1133ZM213.287 3.90625C219.012 3.98438 223.756 8.1875 224.682 13.6699C218.957 13.5918 214.213 9.39062 213.287 3.90625ZM223.979 18.1094C221.893 18.1094 219.93 18.9219 218.453 20.3965C221.361 23.3066 226.391 23.334 229.363 20.5098C229.284 20.4167 229.206 20.3229 229.128 20.2291C228.997 20.0727 228.867 19.9163 228.732 19.7637C227.371 18.709 225.729 18.1094 223.979 18.1094ZM235.969 30.8066C235.915 30.6929 235.863 30.5786 235.811 30.4644C235.8 30.4407 235.789 30.4167 235.778 30.3931C235.702 30.2271 235.626 30.0616 235.545 29.8984C233.195 26.8379 228.895 25.8887 225.469 27.8672C226.512 29.6758 228.197 30.9668 230.213 31.5078C232.17 32.0312 234.201 31.7695 235.969 30.8066ZM233.016 71.6758C232.475 69.6582 231.184 67.9746 229.375 66.9297C227.248 70.6172 228.484 75.3262 232.115 77.5156C232.161 77.4497 232.208 77.3841 232.254 77.3183C232.36 77.1697 232.465 77.0208 232.566 76.8691C233.299 75.2363 233.484 73.4277 233.016 71.6758ZM235.621 79.5488L235.621 79.5503L235.621 79.5518L235.619 79.5547C239.352 81.7129 244.135 80.4238 246.289 76.6973C242.561 74.541 237.777 75.8242 235.621 79.5488ZM247.562 66.918C249.369 65.875 250.662 64.1914 251.201 62.1738C249.188 61.6348 247.082 61.9121 245.273 62.9531C243.467 63.9961 242.174 65.6816 241.635 67.6973C243.65 68.2363 245.756 67.9609 247.562 66.918ZM243.766 58.5938C243.749 58.7053 243.733 58.8172 243.718 58.929C243.696 59.0874 243.675 59.2455 243.648 59.4023C244.363 59.0176 245.104 58.7148 245.865 58.4883C245.377 58.5508 244.881 58.5938 244.375 58.5938H243.766ZM244.375 54.6875C244.375 50.3789 247.879 46.875 252.188 46.875C252.188 51.1836 248.684 54.6875 244.375 54.6875Z" fill="black"/>
<path fill-rule="evenodd" clip-rule="evenodd" d="M240.623 71.4707C241.109 71.6016 241.598 71.6953 242.09 71.7637C241.293 71.7852 240.502 71.8867 239.729 72.0664L239.765 71.9882L239.794 71.9255L239.851 71.8054C239.927 71.6457 240.002 71.4862 240.074 71.3242L240.623 71.4707ZM244.15 46.1816C244.142 46.0885 244.134 45.9954 244.126 45.9023C244.111 45.7161 244.095 45.5299 244.074 45.3438L244.666 45.1855C245.236 45.0332 245.77 44.8027 246.303 44.5703C245.523 45.0254 244.803 45.5645 244.15 46.1816ZM241.236 33.2734C241.137 33.0039 241.035 32.7363 240.932 32.4707L241.477 32.1562C242.053 31.8223 242.576 31.4258 243.078 31.0098C242.385 31.6855 241.756 32.4277 241.236 33.2734ZM236.164 19.0547C235.721 19.8301 235.348 20.6484 235.086 21.5234C234.981 21.3743 234.871 21.2276 234.761 21.0808C234.701 21.0007 234.641 20.9205 234.582 20.8398L235.023 20.3984C235.445 19.9766 235.816 19.5234 236.164 19.0547ZM243.648 59.4023C243.675 59.2455 243.696 59.0874 243.718 58.929C243.733 58.8172 243.749 58.7053 243.766 58.5938H244.375C244.881 58.5938 245.377 58.5508 245.865 58.4883C245.104 58.7148 244.363 59.0176 243.648 59.4023Z" fill="black"/>
<path fill-rule="evenodd" clip-rule="evenodd" d="M33.8809 87.8906C31.0703 85.7227 28.5449 83.2949 26.3398 80.6426C31.5156 77.2734 33.2246 70.3906 30.1016 64.9766L28.1484 61.5957L27.5977 61.9141C28.0605 60.0254 28.0488 58.0391 27.5312 56.1094L26.5195 52.3359L25.9004 52.502C26.8184 50.8301 27.3438 48.9121 27.3438 46.875V42.9688H26.7031C28.0234 41.5918 29.0254 39.877 29.5527 37.9082L30.5645 34.1348L29.8848 33.9531C31.5645 32.9434 33.002 31.5645 34.0098 29.8203L35.9629 26.4375L35.4141 26.1211C37.2812 25.5762 38.9922 24.5742 40.4062 23.1621L43.168 20.4004L40.4062 17.6367C39.7383 16.9688 38.998 16.4043 38.2129 15.9238C43.3379 13.3574 46.875 8.06641 46.875 1.95312V0H42.9688C37.0781 0 31.9434 3.27734 29.2812 8.10352C28.7148 6.54492 27.8398 5.07422 26.5918 3.82617L23.8301 1.06445L21.0684 3.82617C18.8535 6.03906 17.6348 8.98242 17.6348 12.1133C17.6348 14.0684 18.1094 15.9492 19.0078 17.627C18.0977 16.4707 16.9766 15.4785 15.6641 14.7207L12.2812 12.7676L10.3281 16.1504C8.76367 18.8613 8.34766 22.0176 9.15625 25.043C9.70117 27.0762 10.7949 28.8535 12.252 30.2969C10.9922 29.2773 9.53906 28.5039 7.92578 28.0723L4.15234 27.0586L3.14062 30.834C2.33008 33.8574 2.74609 37.0156 4.3125 39.7266C5.34766 41.5195 6.83203 42.9336 8.57617 43.9473C7.14453 43.3203 5.56641 42.9688 3.90625 42.9688H0V46.875C0 52.1504 3.50391 56.6191 8.30664 58.084C6.84375 57.9082 5.3457 58.0078 3.88086 58.4004L0.107422 59.4121L1.11914 63.1856C1.92773 66.209 3.86719 68.7363 6.57812 70.3008C8.29688 71.293 10.1973 71.8086 12.127 71.8574C10.6602 72.0547 9.20898 72.5293 7.84961 73.3145L4.4668 75.2676L6.41992 78.6484C8.58789 82.4043 12.5352 84.5059 16.5879 84.5059C18.5762 84.5059 20.5879 84 22.4277 82.9375L22.9414 82.6426C24.4395 84.4922 26.0723 86.2461 27.8418 87.8926L33.8809 87.8906ZM23.5254 76.8691C23.6282 77.0213 23.7348 77.1724 23.8413 77.3233C23.8865 77.3875 23.9317 77.4515 23.9766 77.5156C27.6074 75.3281 28.8457 70.6191 26.7168 66.9316C24.9082 67.9746 23.6172 69.6602 23.0762 71.6758C22.6074 73.4277 22.793 75.2363 23.5254 76.8691ZM18.3555 66.6406C20.3145 66.0801 21.957 64.8145 22.9785 63.0449C24.0215 61.2383 24.2969 59.1328 23.7598 57.1172C21.7422 57.6582 20.0566 58.9512 19.0137 60.7578C18.1152 62.3164 17.8223 64.0957 18.0957 65.8496C18.1292 65.9501 18.1613 66.0509 18.1933 66.1516C18.2454 66.3152 18.2974 66.4786 18.3555 66.6406ZM15.7207 53.7422C15.7327 53.9323 15.7505 54.1209 15.7683 54.3099C15.7796 54.4296 15.7909 54.5495 15.8008 54.6699C20.0273 54.5742 23.4375 51.123 23.4375 46.875C19.4531 46.875 16.1934 49.8828 15.7207 53.7422ZM16.5781 41.4414C16.5276 41.6898 16.4834 41.9393 16.4394 42.1882C16.4239 42.276 16.4084 42.3636 16.3926 42.4512C20.498 43.4414 24.6797 40.9961 25.7793 36.8965C23.7656 36.3594 21.6602 36.6348 19.8516 37.6777C18.3496 38.543 17.2324 39.8672 16.5781 41.4414ZM16.3672 72.0645C16.3272 71.9783 16.2864 71.8927 16.2458 71.8071C16.1693 71.6461 16.0929 71.4855 16.0215 71.3223L15.4727 71.4688C14.9863 71.5996 14.4961 71.6953 14.0059 71.7617C14.8027 71.7832 15.5938 71.8848 16.3672 72.0645ZM20.127 30.8047C21.8965 31.7715 23.9277 32.0312 25.8809 31.5078C27.8965 30.9668 29.582 29.6738 30.625 27.8672C27.1953 25.8848 22.8984 26.8379 20.5508 29.8984C20.457 30.0873 20.3694 30.2785 20.2816 30.4701C20.2306 30.5816 20.1794 30.6933 20.127 30.8047ZM26.7305 20.5098C29.7031 23.334 34.7305 23.3066 37.6406 20.3984C36.166 18.9219 34.2031 18.1094 32.1152 18.1094C30.3652 18.1094 28.7227 18.709 27.3613 19.7637C27.2271 19.9163 27.0966 20.0727 26.9661 20.2291C26.8878 20.3229 26.8096 20.4167 26.7305 20.5098ZM42.8066 3.90625C41.8809 9.39062 37.1367 13.5918 31.4121 13.6719C32.3379 8.1875 37.082 3.98633 42.8066 3.90625ZM23.8301 17.6367C26.875 14.5898 26.875 9.63477 23.8301 6.58789C22.3535 8.0625 21.541 10.0254 21.541 12.1133C21.541 14.1992 22.3535 16.1602 23.8301 17.6367ZM21.5098 20.8398L21.0684 20.3965C20.6484 19.9766 20.2773 19.5234 19.9277 19.0547C20.373 19.8301 20.7441 20.6484 21.0059 21.5234C21.0991 21.3924 21.1956 21.2632 21.292 21.1342C21.3651 21.0363 21.4381 20.9384 21.5098 20.8398ZM17.3516 22.8457C16.8105 20.8281 15.5195 19.1445 13.7109 18.1016C12.666 19.9082 12.3887 22.0137 12.9297 24.0293C13.4707 26.0469 14.7617 27.7305 16.5703 28.7734C17.6133 26.9668 17.8906 24.8613 17.3516 22.8457ZM15.1602 32.4707L14.6152 32.1562C14.0391 31.8242 13.5176 31.4258 13.0137 31.0098C13.707 31.6855 14.3379 32.4277 14.8555 33.2734C14.9551 33.0059 15.0566 32.7383 15.1602 32.4707ZM11.6582 35.4824C10.6152 33.6758 8.92969 32.3828 6.91406 31.8438C6.375 33.8594 6.65039 35.9629 7.69336 37.7715C8.73633 39.5801 10.4219 40.8711 12.4375 41.4121C12.9785 39.3945 12.7012 37.2891 11.6582 35.4824ZM12.0195 45.3418L11.4277 45.1836C10.8555 45.0312 10.3223 44.8008 9.79297 44.5684C10.5703 45.0234 11.291 45.5645 11.9434 46.1797C11.9518 46.0866 11.9596 45.9935 11.9674 45.9004C11.9831 45.7142 11.9987 45.528 12.0195 45.3418ZM3.90625 46.875C8.21484 46.875 11.7188 50.3789 11.7188 54.6875C7.41016 54.6875 3.90625 51.1836 3.90625 46.875ZM12.3281 58.5938H11.7188C11.2109 58.5938 10.7129 58.5508 10.2207 58.4883C10.9844 58.7129 11.7285 59.0176 12.4453 59.4023C12.419 59.2455 12.3974 59.0874 12.3757 58.929C12.3604 58.8172 12.3451 58.7053 12.3281 58.5938ZM10.8203 62.9531C9.01172 61.9121 6.90625 61.6348 4.89258 62.1738C5.43164 64.1895 6.72461 65.875 8.53125 66.918C10.3398 67.9609 12.4473 68.2402 14.459 67.6973C13.9199 65.6797 12.627 63.9961 10.8203 62.9531ZM20.4727 79.5488C18.3164 75.8242 13.5371 74.5391 9.80469 76.6973C11.957 80.4238 16.7383 81.7109 20.4746 79.5547L20.4727 79.5488Z" fill="black"/>
<path fill-rule="evenodd" clip-rule="evenodd" d="M16.0215 71.3223C16.0929 71.4855 16.1693 71.6461 16.2458 71.8071C16.2864 71.8927 16.3272 71.9783 16.3672 72.0645C15.5938 71.8848 14.8027 71.7832 14.0059 71.7617C14.4961 71.6953 14.9863 71.5996 15.4727 71.4688L16.0215 71.3223ZM21.0684 20.3965L21.5098 20.8398C21.4381 20.9384 21.3651 21.0363 21.292 21.1342C21.1956 21.2632 21.0991 21.3924 21.0059 21.5234C20.7441 20.6484 20.373 19.8301 19.9277 19.0547C20.2773 19.5234 20.6484 19.9766 21.0684 20.3965ZM14.6152 32.1562L15.1602 32.4707C15.0566 32.7383 14.9551 33.0059 14.8555 33.2734C14.3379 32.4277 13.707 31.6855 13.0137 31.0098C13.5176 31.4258 14.0391 31.8242 14.6152 32.1562ZM11.4277 45.1836L12.0195 45.3418C11.9987 45.528 11.9831 45.7142 11.9674 45.9004C11.9596 45.9935 11.9518 46.0866 11.9434 46.1797C11.291 45.5645 10.5703 45.0234 9.79297 44.5684C10.3223 44.8008 10.8555 45.0312 11.4277 45.1836ZM11.7188 58.5938H12.3281C12.3451 58.7053 12.3604 58.8172 12.3757 58.929C12.3974 59.0874 12.419 59.2455 12.4453 59.4023C11.7285 59.0176 10.9844 58.7129 10.2207 58.4883C10.7129 58.5508 11.2109 58.5938 11.7188 58.5938Z" fill="black"/>
</svg>
